<svg width="675" height="148" viewBox="0 0 675 148" fill="none" xmlns="http://www.w3.org/2000/svg">
<mask id="mask0_1_42" style="mask-type:luminance" maskUnits="userSpaceOnUse" x="0" y="0" width="675" height="148">
<path d="M674.218 0H0V148H674.218V0Z" fill="white"/>
</mask>
<g mask="url(#mask0_1_42)">
<path d="M189.524 98.0459V50.5335C189.524 49.0435 190.725 47.8432 192.214 47.8432H198.38C199.87 47.8432 201.07 49.0435 201.07 50.5335V90.2238H220.477C221.967 90.2238 223.167 91.424 223.167 92.914V98.0459C223.167 99.5359 221.967 100.736 220.477 100.736H192.214C190.725 100.736 189.524 99.5359 189.524 98.0459Z" fill="#1D1D1B"/>
<path d="M247.251 87.0784C249.196 89.52 251.762 90.7617 255.031 90.7617C258.3 90.7617 260.865 89.52 262.769 87.0784C264.672 84.6364 265.624 81.2842 265.624 77.0625V50.5749C265.624 49.0849 266.824 47.8847 268.314 47.8847H274.48C275.969 47.8847 277.169 49.0849 277.169 50.5749V77.4765C277.169 85.1329 275.1 91.01 270.962 95.1488C266.824 99.2462 261.527 101.315 255.031 101.315C248.534 101.315 243.237 99.2462 239.058 95.1074C234.878 90.9686 232.809 85.0919 232.768 77.4765V50.5749C232.768 49.0849 233.968 47.8847 235.457 47.8847H241.623C243.113 47.8847 244.313 49.0849 244.313 50.5749V77.0625C244.313 81.2842 245.265 84.6364 247.168 87.0784H247.251Z" fill="#1D1D1B"/>
<path d="M331.13 47.8432H337.296C338.786 47.8432 339.986 49.0435 339.986 50.5335V98.0459C339.986 99.5359 338.786 100.736 337.296 100.736H329.765C328.896 100.736 328.109 100.322 327.613 99.6599L303.736 67.5849V98.0459C303.736 99.5359 302.536 100.736 301.046 100.736H294.881C293.391 100.736 292.191 99.5359 292.191 98.0459V50.5335C292.191 49.0435 293.391 47.8432 294.881 47.8432H301.667C302.536 47.8432 303.322 48.2572 303.819 48.9195L328.441 81.8636V50.5335C328.441 49.0435 329.64 47.8432 331.13 47.8432Z" fill="#1D1D1B"/>
<path d="M395.353 54.7552C400.277 59.3905 402.759 65.8052 402.759 74C402.759 82.2362 400.359 88.7338 395.52 93.5345C390.677 98.3356 383.352 100.736 373.464 100.736H358.442C356.952 100.736 355.752 99.5359 355.71 98.0459V50.5335C355.71 49.0435 356.91 47.8432 358.4 47.8432H374C383.271 47.8432 390.348 50.1609 395.312 54.7552H395.353ZM386.87 86.2093C389.726 83.4775 391.132 79.5459 391.132 74.3311C391.132 69.1164 389.726 65.1433 386.87 62.3287C384.014 59.5145 379.671 58.1488 373.793 58.1074H367.338V90.2652H374.662C379.96 90.2652 384.014 88.8992 386.87 86.1678V86.2093Z" fill="#1D1D1B"/>
<path d="M438.43 100.736H418.445C416.954 100.736 415.756 99.5359 415.756 98.0459V50.5335C415.756 49.0435 416.954 47.8436 418.445 47.8436H435.907C439.01 47.7607 442.074 48.2158 445.011 49.1264C447.534 49.9955 449.48 51.1544 450.764 52.6029C452.998 55.1274 454.237 58.4385 454.237 61.8322C454.237 65.971 452.913 69.0335 450.308 71.0615C449.728 71.558 449.106 72.0135 448.444 72.3861C448.115 72.5515 447.493 72.8412 446.583 73.2552C449.809 73.9586 452.376 75.4486 454.278 77.6834C456.183 79.9185 457.134 82.7327 457.134 86.0435C457.134 89.6443 455.81 93.1209 453.412 95.8111C450.556 99.0805 445.547 100.736 438.43 100.736ZM427.298 69.2403H432.803C436.032 69.2403 438.389 68.8681 439.961 68.1644C441.533 67.461 442.321 65.9296 442.321 63.5704C442.321 61.2113 441.618 59.6803 440.168 58.9351C438.722 58.1903 436.321 57.8177 432.884 57.8177H427.342V69.2403H427.298ZM427.298 90.7203H435.244C438.555 90.7203 441.038 90.3066 442.691 89.4786C444.349 88.6509 445.177 86.9955 445.177 84.5539C445.177 82.1119 444.308 80.4979 442.529 79.7113C440.749 78.9251 437.975 78.5525 434.127 78.5525H427.298V90.7203Z" fill="#1D1D1B"/>
<path d="M507.206 50.5335V55.6654C507.206 57.1554 506.008 58.3557 504.517 58.3557H481.384V69.2403H497.854C499.345 69.2403 500.544 70.4406 500.544 71.9306V76.6074C500.544 78.0974 499.345 79.2977 497.854 79.2977H481.384V90.2652H505.301C506.792 90.2652 507.991 91.4655 507.991 92.9551V98.0045C507.991 99.4945 506.792 100.695 505.301 100.695H472.487C470.996 100.695 469.797 99.4945 469.797 98.0045V50.4921C469.797 49.0021 470.996 47.8022 472.487 47.8022H504.476C505.963 47.8022 507.166 49.0021 507.166 50.4921L507.206 50.5335Z" fill="#1D1D1B"/>
<path d="M563.319 65.3916C563.319 73.8757 560.049 79.3391 553.468 81.8222L563.649 96.5145C564.518 97.7562 564.189 99.4116 562.987 100.281C562.532 100.612 561.995 100.777 561.455 100.777H553.801C552.891 100.777 552.062 100.322 551.566 99.5774L540.89 83.8916H532.903V98.0459C532.903 99.5359 531.704 100.736 530.213 100.736H524.046C522.559 100.736 521.357 99.5359 521.357 98.0459V50.5335C521.357 49.0435 522.559 47.8432 524.046 47.8432H541.016C549.084 47.8432 554.837 49.2507 558.27 52.0235C561.703 54.7963 563.401 59.2662 563.401 65.433L563.319 65.3916ZM549.413 71.6823C550.863 70.3581 551.566 68.2887 551.566 65.433C551.566 62.5774 550.823 60.6319 549.332 59.5559C547.841 58.48 545.237 57.9831 541.552 57.9831H532.862V73.6274H541.304C545.237 73.6274 547.967 72.9655 549.413 71.6409V71.6823Z" fill="#1D1D1B"/>
<path d="M614.55 76.4831H620.798C622.285 76.4831 623.487 77.6833 623.487 79.1733V91.4655C623.487 92.1688 623.24 92.7897 622.785 93.3277C617.694 98.6668 610.824 101.316 602.134 101.316C594.521 101.316 588.147 98.7493 582.975 93.6174C577.803 88.4855 575.235 81.9876 575.235 74.1243C575.235 66.2607 578.051 59.3491 583.637 54.01C588.89 49.0849 595.886 46.4361 603.126 46.6433C609.126 46.7258 614.96 48.7952 619.681 52.4786C620.798 53.3477 621.046 54.962 620.258 56.1623L617.28 60.5494C616.451 61.7907 614.757 62.0804 613.554 61.2528C613.554 61.2528 613.514 61.2113 613.473 61.1699C612.189 60.1768 610.743 59.3077 609.211 58.6868C607.184 57.9006 605.031 57.4865 602.878 57.528C598.697 57.4451 594.643 59.1008 591.746 62.1219C588.727 65.1847 587.236 69.1992 587.236 74.2068C587.236 79.2148 588.687 83.1878 591.583 86.2093C594.48 89.2303 597.913 90.7203 601.927 90.7203C605.941 90.7203 609.252 89.934 611.941 88.3612V79.2148C611.941 77.7248 613.14 76.5245 614.631 76.5245L614.55 76.4831Z" fill="#1D1D1B"/>
<path d="M648.895 58.3971C647.778 59.3077 647.197 60.6733 647.238 62.1219C647.238 63.6119 647.985 65.019 649.265 65.8052C650.63 66.7158 653.779 67.7918 658.703 69.0335C663.627 70.2752 667.433 72.1374 670.163 74.5794C672.894 77.0625 674.262 80.6633 674.262 85.3816C674.262 90.0994 672.524 93.9485 669.046 96.9285C665.569 99.8671 660.978 101.357 655.266 101.357C647.9 101.357 641.156 98.8322 635.115 93.8242C633.957 92.8726 633.79 91.2168 634.701 90.058L638.259 85.5884C639.21 84.4296 640.908 84.2642 642.066 85.1744C646.868 89.0235 651.337 90.9271 655.514 90.9271C657.626 90.9271 659.32 90.472 660.523 89.52C661.721 88.6509 662.384 87.2023 662.343 85.7538C662.384 84.2642 661.64 82.8156 660.397 81.9876C659.117 81.0359 656.55 80.1253 652.743 79.1319C646.702 77.6833 642.314 75.7797 639.502 73.4206C636.687 71.0615 635.322 67.3781 635.322 62.3702C635.322 57.3626 637.102 53.472 640.62 50.7403C644.134 48.009 648.562 46.6433 653.86 46.6433C657.419 46.6433 660.896 47.2642 664.248 48.4641C666.73 49.3332 669.087 50.492 671.24 51.982C672.439 52.8512 672.731 54.5065 671.902 55.7068L669.006 59.97C668.177 61.1699 666.523 61.501 665.321 60.7148C661.514 58.2317 657.585 57.0314 653.527 57.0314C651.585 57.0314 650.094 57.4865 648.977 58.3971H648.895Z" fill="#1D1D1B"/>
<path d="M73.9891 148C114.852 148 147.978 114.869 147.978 74C147.978 33.1309 114.852 0 73.9891 0C33.126 0 0 33.1309 0 74C0 114.869 33.126 148 73.9891 148Z" fill="#1C955C"/>
<path d="M37.5326 40.2283C44.4431 40.2283 50.0711 45.8567 50.0711 52.7683V56.7003C50.0711 57.1139 50.4022 57.4865 50.8572 57.4865H80.5272C80.9412 57.4865 81.3137 57.1554 81.3137 56.7003V52.7683C81.3137 45.8567 86.9414 40.2283 93.8519 40.2283H98.073C98.7763 40.2283 99.3556 39.6488 99.3556 38.9451V28.5156C99.3556 27.8121 98.7763 27.2327 98.073 27.1913H33.3531C32.6496 27.1913 32.0703 27.7707 32.0703 28.4743V38.9037C32.0703 39.6074 32.6496 40.1868 33.3531 40.1868H37.574L37.5326 40.2283Z" fill="white"/>
<path d="M126.129 82.8981L118.805 79.0079C118.142 78.6354 117.315 78.8422 116.86 79.4216L102.873 97.1768C100.556 100.032 97.3693 101.812 93.8518 101.812C86.9413 101.812 81.3137 96.1833 81.3137 89.2717V85.4641C81.3137 85.0504 80.9826 84.6778 80.5275 84.6778H50.8572C50.4436 84.6778 50.071 85.0504 50.071 85.4641V89.2717C50.071 96.1833 44.443 101.812 37.5325 101.812H33.1876C32.4841 101.812 31.9048 102.392 31.9048 103.095V113.525C31.9048 114.228 32.4841 114.808 33.1876 114.808H107.508C110.363 114.808 110.115 114.352 111.149 112.531L126.667 84.6778C126.998 84.057 126.791 83.2707 126.171 82.8981H126.129Z" fill="white"/>
<path d="M50.1125 80.3322V61.8736C50.1125 61.4596 50.4436 61.0874 50.8986 61.0874H53.7124C54.1264 61.0874 54.4989 61.4185 54.4989 61.8736V76.6074C54.4989 76.8971 54.7057 77.1454 54.9954 77.1454H62.5682C62.9818 77.1454 63.3543 77.4765 63.3543 77.9316V80.3736C63.3543 80.7877 63.0232 81.1599 62.5682 81.1599H50.8572C50.4436 81.1599 50.071 80.7877 50.071 80.3736L50.1125 80.3322Z" fill="white"/>
<path d="M81.2307 61.8736V64.3156C81.2307 64.7293 80.8996 65.1019 80.4445 65.1019H71.9199V69.2403H80.4445C80.8581 69.2403 81.2307 69.5715 81.2307 70.027V72.2617C81.2307 72.6758 80.8996 73.048 80.4445 73.048H71.9199V77.1868H80.4445C80.8581 77.1868 81.2307 77.518 81.2307 77.9731V80.3736C81.2307 80.7877 80.8996 81.1599 80.4445 81.1599H68.32C67.906 81.1599 67.5334 80.7877 67.5334 80.3736V61.9151C67.5334 61.501 67.8646 61.1288 68.32 61.1288H80.4445C80.8581 61.1288 81.2307 61.4596 81.2307 61.9151V61.8736Z" fill="white"/>
</g>
</svg>
